<svg data-v-423bf9ae="" xmlns="http://www.w3.org/2000/svg" viewBox="0 0 390 91" class="iconLeftSlogan"><!----><!----><!----><g data-v-423bf9ae="" id="132ca970-a170-4051-be70-827b0ed92722" fill="black" transform="matrix(4.325882939406962,0,0,4.325882939406962,104.46287445818561,-11.463590678813958)"><path d="M1.28 13.78L1.28 2.80L3.57 2.80L3.57 2.80Q4.99 2.80 5.98 3.44L5.98 3.44L5.98 3.44Q6.97 4.07 7.48 5.32L7.48 5.32L7.48 5.32Q7.99 6.57 7.99 8.39L7.99 8.39L7.99 8.39Q7.99 10.11 7.47 11.32L7.47 11.32L7.47 11.32Q6.95 12.53 5.95 13.16L5.95 13.16L5.95 13.16Q4.96 13.78 3.55 13.78L3.55 13.78L1.28 13.78ZM2.32 12.80L3.39 12.80L3.39 12.80Q5.18 12.80 6.05 11.69L6.05 11.69L6.05 11.69Q6.92 10.58 6.92 8.29L6.92 8.29L6.92 8.29Q6.92 6.00 6.09 4.89L6.09 4.89L6.09 4.89Q5.25 3.77 3.53 3.77L3.53 3.77L2.32 3.77L2.32 12.80ZM14.88 9.63L14.88 9.63Q14.88 9.98 14.86 10.12L14.86 10.12L10.08 10.12L10.08 10.12Q10.12 10.91 10.36 11.57L10.36 11.57L10.36 11.57Q10.61 12.22 11.09 12.62L11.09 12.62L11.09 12.62Q11.57 13.02 12.26 13.02L12.26 13.02L12.26 13.02Q13.28 13.02 14.05 12.22L14.05 12.22L14.64 12.89L14.64 12.89Q14.11 13.45 13.51 13.70L13.51 13.70L13.51 13.70Q12.92 13.94 12.26 13.94L12.26 13.94L12.26 13.94Q11.20 13.94 10.49 13.34L10.49 13.34L10.49 13.34Q9.77 12.75 9.43 11.78L9.43 11.78L9.43 11.78Q9.08 10.81 9.08 9.69L9.08 9.69L9.08 9.69Q9.08 8.57 9.37 7.62L9.37 7.62L9.37 7.62Q9.66 6.67 10.33 6.07L10.33 6.07L10.33 6.07Q10.99 5.48 12.07 5.48L12.07 5.48L12.07 5.48Q13.23 5.48 13.85 6.09L13.85 6.09L13.85 6.09Q14.46 6.71 14.67 7.62L14.67 7.62L14.67 7.62Q14.88 8.52 14.88 9.63L14.88 9.63ZM12.04 6.40L12.04 6.40Q11.01 6.40 10.56 7.20L10.56 7.20L10.56 7.20Q10.12 8.00 10.08 9.26L10.08 9.26L13.96 9.26L13.96 9.26Q13.94 8.31 13.77 7.69L13.77 7.69L13.77 7.69Q13.61 7.08 13.20 6.74L13.20 6.74L13.20 6.74Q12.79 6.40 12.04 6.40L12.04 6.40ZM16.32 13.78L16.32 5.63L17.33 5.63L17.33 6.89L17.38 6.89L17.38 6.89Q17.69 6.23 18.17 5.85L18.17 5.85L18.17 5.85Q18.64 5.48 19.27 5.48L19.27 5.48L19.27 5.48Q19.94 5.48 20.43 5.80L20.43 5.80L20.43 5.80Q20.92 6.13 21.19 6.73L21.19 6.73L21.19 6.73Q21.45 7.34 21.45 8.18L21.45 8.18L21.45 13.78L20.46 13.78L20.46 8.28L20.46 8.28Q20.46 7.27 20.12 6.84L20.12 6.84L20.12 6.84Q19.78 6.41 19.13 6.41L19.13 6.41L19.13 6.41Q18.61 6.41 18.19 6.74L18.19 6.74L18.19 6.74Q17.78 7.06 17.55 7.65L17.55 7.65L17.55 7.65Q17.32 8.23 17.32 8.99L17.32 8.99L17.32 13.78L16.32 13.78ZM25.15 13.78L25.15 13.78Q24.29 13.78 23.88 13.28L23.88 13.28L23.88 13.28Q23.47 12.77 23.47 11.74L23.47 11.74L23.47 6.45L22.49 6.45L22.49 5.63L23.47 5.63L23.63 3.76L24.46 3.76L24.46 5.63L26.21 5.63L26.21 6.45L24.46 6.45L24.46 11.55L24.46 11.55Q24.46 12.07 24.55 12.37L24.55 12.37L24.55 12.37Q24.64 12.67 24.85 12.81L24.85 12.81L24.85 12.81Q25.05 12.95 25.42 12.95L25.42 12.95L26.04 12.95L26.04 13.78L25.15 13.78ZM29.46 5.48L29.46 5.48Q30.19 5.48 30.77 5.75L30.77 5.75L30.77 5.75Q31.34 6.03 31.67 6.58L31.67 6.58L31.67 6.58Q32.00 7.12 32.00 7.90L32.00 7.90L32.00 13.78L31.14 13.78L31.09 12.46L31.01 12.46L31.01 12.46Q30.65 13.13 30.04 13.55L30.04 13.55L30.04 13.55Q29.43 13.96 28.79 13.96L28.79 13.96L28.79 13.96Q28.17 13.96 27.69 13.69L27.69 13.69L27.69 13.69Q27.21 13.41 26.94 12.94L26.94 12.94L26.94 12.94Q26.67 12.47 26.67 11.90L26.67 11.90L26.67 11.90Q26.67 11.04 27.03 10.45L27.03 10.45L27.03 10.45Q27.38 9.85 28.10 9.41L28.10 9.41L28.10 9.41Q28.68 9.05 29.43 8.81L29.43 8.81L29.43 8.81Q30.19 8.57 31.08 8.47L31.08 8.47L31.08 8.04L31.08 8.04Q31.08 7.17 30.69 6.79L30.69 6.79L30.69 6.79Q30.30 6.41 29.54 6.41L29.54 6.41L29.54 6.41Q28.85 6.41 28.38 6.72L28.38 6.72L28.38 6.72Q27.90 7.03 27.56 7.67L27.56 7.67L26.82 7.13L26.82 7.13Q27.27 6.29 27.92 5.88L27.92 5.88L27.92 5.88Q28.57 5.48 29.46 5.48L29.46 5.48ZM28.92 12.99L28.92 12.99Q29.65 12.99 30.18 12.52L30.18 12.52L30.18 12.52Q30.71 12.04 31.08 11.29L31.08 11.29L31.08 9.34L31.08 9.34Q30.32 9.43 29.67 9.64L29.67 9.64L29.67 9.64Q29.03 9.84 28.57 10.19L28.57 10.19L28.57 10.19Q28.17 10.48 27.96 10.88L27.96 10.88L27.96 10.88Q27.74 11.27 27.74 11.76L27.74 11.76L27.74 11.76Q27.74 12.32 28.07 12.65L28.07 12.65L28.07 12.65Q28.40 12.99 28.92 12.99L28.92 12.99ZM41.51 14.37L41.22 15.26L36.85 13.88L36.85 13.88Q35.83 13.71 35.08 12.97L35.08 12.97L35.08 12.97Q34.33 12.24 33.93 11.04L33.93 11.04L33.93 11.04Q33.52 9.84 33.52 8.29L33.52 8.29L33.52 8.29Q33.52 6.58 34.01 5.30L34.01 5.30L34.01 5.30Q34.49 4.03 35.40 3.34L35.40 3.34L35.40 3.34Q36.30 2.65 37.50 2.65L37.50 2.65L37.50 2.65Q38.70 2.65 39.60 3.34L39.60 3.34L39.60 3.34Q40.50 4.03 40.98 5.30L40.98 5.30L40.98 5.30Q41.47 6.58 41.47 8.29L41.47 8.29L41.47 8.29Q41.47 9.60 41.18 10.67L41.18 10.67L41.18 10.67Q40.89 11.74 40.34 12.49L40.34 12.49L40.34 12.49Q39.79 13.23 39.03 13.60L39.03 13.60L41.51 14.37ZM34.56 8.29L34.56 8.29Q34.56 9.71 34.92 10.76L34.92 10.76L34.92 10.76Q35.28 11.81 35.95 12.38L35.95 12.38L35.95 12.38Q36.61 12.95 37.50 12.95L37.50 12.95L37.50 12.95Q38.39 12.95 39.06 12.38L39.06 12.38L39.06 12.38Q39.72 11.81 40.08 10.76L40.08 10.76L40.08 10.76Q40.44 9.71 40.44 8.29L40.44 8.29L40.44 8.29Q40.44 6.88 40.08 5.83L40.08 5.83L40.08 5.83Q39.72 4.77 39.06 4.20L39.06 4.20L39.06 4.20Q38.39 3.63 37.50 3.63L37.50 3.63L37.50 3.63Q36.61 3.63 35.95 4.20L35.95 4.20L35.95 4.20Q35.28 4.77 34.92 5.83L34.92 5.83L34.92 5.83Q34.56 6.88 34.56 8.29L34.56 8.29ZM45.15 13.94L45.15 13.94Q44.51 13.94 44.03 13.61L44.03 13.61L44.03 13.61Q43.54 13.29 43.28 12.68L43.28 12.68L43.28 12.68Q43.02 12.07 43.02 11.23L43.02 11.23L43.02 5.63L44.01 5.63L44.01 11.14L44.01 11.14Q44.01 11.55 44.08 11.94L44.08 11.94L44.08 11.94Q44.15 12.33 44.43 12.67L44.43 12.67L44.43 12.67Q44.71 13.00 45.30 13.00L45.30 13.00L45.30 13.00Q45.86 13.00 46.28 12.68L46.28 12.68L46.28 12.68Q46.70 12.36 46.93 11.77L46.93 11.77L46.93 11.77Q47.15 11.18 47.15 10.42L47.15 10.42L47.15 5.63L48.15 5.63L48.15 13.78L47.14 13.78L47.14 12.52L47.09 12.52L47.09 12.52Q46.76 13.21 46.29 13.58L46.29 13.58L46.29 13.58Q45.82 13.94 45.15 13.94L45.15 13.94ZM55.43 9.63L55.43 9.63Q55.43 9.98 55.41 10.12L55.41 10.12L50.63 10.12L50.63 10.12Q50.67 10.91 50.91 11.57L50.91 11.57L50.91 11.57Q51.16 12.22 51.64 12.62L51.64 12.62L51.64 12.62Q52.12 13.02 52.81 13.02L52.81 13.02L52.81 13.02Q53.83 13.02 54.60 12.22L54.60 12.22L55.19 12.89L55.19 12.89Q54.66 13.45 54.07 13.70L54.07 13.70L54.07 13.70Q53.47 13.94 52.81 13.94L52.81 13.94L52.81 13.94Q51.75 13.94 51.04 13.34L51.04 13.34L51.04 13.34Q50.32 12.75 49.98 11.78L49.98 11.78L49.98 11.78Q49.64 10.81 49.64 9.69L49.64 9.69L49.64 9.69Q49.64 8.57 49.92 7.62L49.92 7.62L49.92 7.62Q50.21 6.67 50.88 6.07L50.88 6.07L50.88 6.07Q51.54 5.48 52.62 5.48L52.62 5.48L52.62 5.48Q53.78 5.48 54.40 6.09L54.40 6.09L54.40 6.09Q55.02 6.71 55.22 7.62L55.22 7.62L55.22 7.62Q55.43 8.52 55.43 9.63L55.43 9.63ZM52.60 6.40L52.60 6.40Q51.56 6.40 51.12 7.20L51.12 7.20L51.12 7.20Q50.67 8.00 50.63 9.26L50.63 9.26L54.51 9.26L54.51 9.26Q54.49 8.31 54.33 7.69L54.33 7.69L54.33 7.69Q54.16 7.08 53.75 6.74L53.75 6.74L53.75 6.74Q53.34 6.40 52.60 6.40L52.60 6.40ZM56.88 13.78L56.88 5.63L57.88 5.63L57.88 6.96L57.91 6.96L57.91 6.96Q58.15 6.27 58.57 5.89L58.57 5.89L58.57 5.89Q58.98 5.51 59.50 5.51L59.50 5.51L59.50 5.51Q60.06 5.51 60.35 5.65L60.35 5.65L60.35 6.59L60.35 6.59Q59.96 6.47 59.70 6.47L59.70 6.47L59.70 6.47Q59.62 6.47 59.58 6.48L59.58 6.48L59.58 6.48Q58.75 6.56 58.31 7.30L58.31 7.30L58.31 7.30Q57.87 8.05 57.87 9.39L57.87 9.39L57.87 13.78L56.88 13.78ZM64.76 5.63L65.83 5.63L63.81 13.78L63.81 13.78Q63.57 14.70 63.27 15.30L63.27 15.30L63.27 15.30Q62.96 15.89 62.50 16.20L62.50 16.20L62.50 16.20Q62.05 16.52 61.41 16.52L61.41 16.52L61.41 16.52Q60.94 16.52 60.44 16.34L60.44 16.34L60.68 15.58L60.68 15.58Q60.85 15.64 61.03 15.66L61.03 15.66L61.03 15.66Q61.21 15.69 61.52 15.69L61.52 15.69L61.52 15.69Q62.08 15.69 62.41 15.18L62.41 15.18L62.41 15.18Q62.74 14.68 62.92 13.78L62.92 13.78L62.39 13.78L60.37 5.63L61.46 5.63L62.43 10.06L63.11 13.15L64.76 5.63Z"></path></g><!----><g data-v-423bf9ae="" id="ac00c479-b483-4f2e-8c67-b5c275fa29ac" transform="matrix(1.0000000847710504,0,0,1.0000000847710504,-4.0000042385525205,-4.000008053250106)" stroke="none" fill="black"><path d="M71.468 86.107A41.957 41.957 0 0 1 50 92C26.841 92 8 73.159 8 50c0-9.016 2.814-17.61 8.139-24.852a1.501 1.501 0 0 0-2.418-1.777C8.016 31.132 5 40.34 5 50c0 24.813 20.187 45 45 45a44.95 44.95 0 0 0 23.003-6.316 1.5 1.5 0 1 0-1.535-2.577zM50 5a45.052 45.052 0 0 0-28.768 10.395 1.5 1.5 0 1 0 1.92 2.305A42.05 42.05 0 0 1 50 8c23.159 0 42 18.841 42 42 0 11.133-4.312 21.623-12.141 29.537a1.5 1.5 0 1 0 2.133 2.11C90.381 73.167 95 61.928 95 50 95 25.187 74.813 5 50 5z"></path><path d="M44.695 31.161a1.557 1.557 0 0 0-.216 0c-.967.072-2.32-.293-3.755-.678-3.278-.879-7.77-2.081-12.282.701-3.438 2.12-5.588 6.116-6.454 9.148-.217.759-.352 1.595-.411 2.641-.024.479-.024.985-.002 1.48v4.835c0 5.673 1.125 8.542 3.488 12.473a1.5 1.5 0 0 0 2.571-1.546c-2.115-3.519-3.059-5.931-3.059-10.927l-.001-4.9c-.019-.428-.022-.85-.002-1.317.046-.74.144-1.366.301-1.914.712-2.493 2.438-5.751 5.144-7.42 3.412-2.103 6.726-1.216 9.933-.357.281.075.556.146.831.218l-3.559 1.785a1.5 1.5 0 0 0 1.346 2.681l7.71-3.867c.107-.054.202-.121.29-.195.856-.149 1.742-.377 2.657-.622 3.204-.86 6.52-1.747 9.932.357 2.706 1.669 4.432 4.927 5.145 7.419.158.555.254 1.178.294 1.906l.004.052c.015.488.021 4.002.021 6.159 0 6.087-1.405 8.323-4.485 13.221-.32.51-.657 1.045-1.01 1.614-.688 1.108-1.087 1.906-1.256 2.51a55.7 55.7 0 0 0-.421 1.689c-2.871 11.99-4.703 12.756-5.225 12.69-.334-.038-.756-.666-.939-1.133-.274-1.459-.36-3.148-.442-4.784-.12-2.388-.245-4.857-.97-6.823-.374-1.015-.828-2.08-1.883-2.96-1.125-.938-2.258-1.414-3.331-1.414h-.103c-1.112 0-2.246.476-3.369 1.414-1.058.883-1.511 1.947-1.883 2.96-.725 1.966-.85 4.436-.971 6.824-.082 1.636-.168 3.327-.443 4.787-.158.404-.582 1.09-.938 1.13-.516.079-2.354-.701-5.226-12.69-.175-.729-.315-1.314-.421-1.691-.1-.353-.276-.769-.539-1.272a1.5 1.5 0 0 0-2.658 1.39c.222.424.29.626.309.692.098.35.229.897.392 1.58 1.798 7.506 4.093 15.459 8.481 14.973 2.419-.274 3.373-2.938 3.474-3.24.021-.061.037-.122.049-.185.334-1.696.427-3.539.517-5.322.115-2.263.223-4.401.79-5.938.261-.709.499-1.284.99-1.694.554-.463 1.067-.717 1.486-.717h.023c.38 0 .894.254 1.448.717.489.409.719.961.99 1.695.566 1.536.674 3.673.788 5.936.09 1.783.183 3.627.517 5.323.013.063.028.125.049.185.101.303 1.057 2.966 3.475 3.24.132.015.261.022.389.022 4.145 0 6.348-7.714 8.092-14.995.163-.682.294-1.229.392-1.579.031-.111.189-.566.916-1.737.35-.563.683-1.094 1.001-1.599 3.188-5.072 4.945-7.866 4.945-14.818l-.011-5.319c-.003-.342-.005-.709-.052-1.054l.034-.002c-.053-.953-.186-1.792-.405-2.564-.867-3.033-3.019-7.03-6.455-9.149-4.514-2.784-9.005-1.58-12.282-.701-1.436.382-2.797.747-3.755.676z"></path><path d="M61.878 43.369l-.007-.129a5.507 5.507 0 0 0-.178-1.212c-.558-1.955-1.701-3.875-2.984-5.012a1.499 1.499 0 1 0-1.99 2.244c.853.756 1.692 2.2 2.09 3.592.005.017.047.172.067.554l.006.104c.007.185.005.393-.005.617l-.008 1.539a1.5 1.5 0 1 0 3 0l-.002-1.273.007-.133c.013-.316.015-.603.004-.891zM74.992 26.148a1.5 1.5 0 0 0-1.5 1.5v2.736h-2.736a1.5 1.5 0 1 0 0 3h2.736v2.736a1.5 1.5 0 1 0 3 0v-2.736h2.735a1.5 1.5 0 1 0 0-3h-2.735v-2.736a1.5 1.5 0 0 0-1.5-1.5zM55.449 14a1.5 1.5 0 0 0-1.5 1.5v2.026h-2.026a1.5 1.5 0 1 0 0 3h2.026v2.026a1.5 1.5 0 1 0 3 0v-2.026h2.026a1.5 1.5 0 1 0 0-3h-2.026V15.5a1.5 1.5 0 0 0-1.5-1.5zM80.941 56.181a1.5 1.5 0 1 0 0-3h-2.026v-2.026a1.5 1.5 0 1 0-3 0v2.026h-2.026a1.5 1.5 0 1 0 0 3h2.026v2.026a1.5 1.5 0 1 0 3 0v-2.026h2.026z"></path></g><!----><g data-v-423bf9ae="" id="f4be1d29-a73b-4478-a0d3-205c8d101fcd" fill="black" transform="matrix(0.40738322354954676,0,0,0.40738322354954676,109.7759464555643,59.144493729949446)"><path d="M5.11 10.57C2.86 10.57 1.60 8.93 1.60 6.85C1.60 4.76 2.86 3.12 5.11 3.12C6.64 3.12 7.64 3.85 8.12 4.98L9.23 4.98C8.64 3.29 7.13 2.10 5.03 2.10C2.24 2.10 0.55 4.21 0.55 6.85C0.55 9.48 2.24 11.59 5.03 11.59C7.13 11.59 8.64 10.40 9.23 8.71L8.12 8.71C7.64 9.84 6.64 10.57 5.11 10.57ZM17.79 2.21L17.79 11.48L23.90 11.48L23.90 10.47L18.84 10.47L18.84 2.21ZM36.41 2.21L35.10 2.21L31.16 11.48L32.33 11.48L33.46 8.79L38.05 8.79L39.19 11.48L40.35 11.48ZM33.87 7.83L35.76 3.30L37.65 7.83ZM49.57 7.92L52.79 7.92L55.03 11.48L56.28 11.48L53.84 7.74C54.88 7.50 56.08 6.90 56.08 5.11C56.08 3.35 54.87 2.21 52.96 2.21L48.52 2.21L48.52 11.48L49.57 11.48ZM49.57 3.21L52.84 3.21C54.15 3.21 55.03 3.93 55.03 5.11C55.03 6.55 53.77 6.93 52.78 6.93L49.57 6.93ZM65.94 2.21L64.89 2.21L64.89 11.48L65.94 11.48ZM81.79 2.21L74.27 2.21L74.27 3.22L77.50 3.22L77.50 11.48L78.55 11.48L78.55 3.22L81.79 3.22ZM93.91 7.81L97.79 2.21L96.52 2.21L93.38 6.72L90.24 2.21L88.97 2.21L92.86 7.81L92.86 11.48L93.91 11.48ZM103.99 13.34L104.94 13.34L106.18 10.36L104.80 10.36ZM131.61 2.21L124.10 2.21L124.10 3.22L127.33 3.22L127.33 11.48L128.38 11.48L128.38 3.22L131.61 3.22ZM140.99 7.92L144.21 7.92L146.45 11.48L147.70 11.48L145.26 7.74C146.30 7.50 147.50 6.90 147.50 5.11C147.50 3.35 146.29 2.21 144.38 2.21L139.94 2.21L139.94 11.48L140.99 11.48ZM140.99 3.21L144.26 3.21C145.57 3.21 146.45 3.93 146.45 5.11C146.45 6.55 145.19 6.93 144.20 6.93L140.99 6.93ZM160.47 2.21L159.15 2.21L155.22 11.48L156.38 11.48L157.51 8.79L162.11 8.79L163.24 11.48L164.40 11.48ZM157.92 7.83L159.81 3.30L161.70 7.83ZM179.52 2.21L179.52 10.01L173.80 2.21L172.58 2.21L172.58 11.48L173.63 11.48L173.63 3.65L179.35 11.48L180.57 11.48L180.57 2.21ZM190.46 4.65C190.46 4.03 190.82 3.08 192.92 3.08C194.61 3.08 195.40 3.82 195.51 4.75L196.59 4.75C196.50 3.36 195.38 2.10 192.92 2.10C190.60 2.10 189.43 3.15 189.43 4.66C189.43 7.84 195.78 6.69 195.78 8.96C195.78 10.05 194.80 10.60 193.23 10.60C191.62 10.60 190.32 10.05 190.25 8.71L189.15 8.71C189.29 10.37 190.41 11.59 193.16 11.59C195.44 11.59 196.83 10.64 196.83 8.92C196.83 5.68 190.46 6.80 190.46 4.65ZM206.50 8.18L209.62 8.18C211.60 8.18 212.81 7.03 212.81 5.19C212.81 3.37 211.60 2.21 209.62 2.21L205.45 2.21L205.45 11.48L206.50 11.48ZM209.55 3.21C211.01 3.21 211.76 3.96 211.76 5.19C211.76 6.44 211.01 7.20 209.55 7.20L206.50 7.20L206.50 3.21ZM224.91 2.21L223.59 2.21L219.66 11.48L220.82 11.48L221.96 8.79L226.55 8.79L227.68 11.48L228.84 11.48ZM222.36 7.83L224.25 3.30L226.14 7.83ZM238.07 7.92L241.29 7.92L243.53 11.48L244.78 11.48L242.34 7.74C243.38 7.50 244.58 6.90 244.58 5.11C244.58 3.35 243.36 2.21 241.46 2.21L237.02 2.21L237.02 11.48L238.07 11.48ZM238.07 3.21L241.33 3.21C242.65 3.21 243.53 3.93 243.53 5.11C243.53 6.55 242.27 6.93 241.28 6.93L238.07 6.93ZM260.20 3.22L260.20 2.21L253.39 2.21L253.39 11.48L260.20 11.48L260.20 10.47L254.44 10.47L254.44 7.35L259.59 7.35L259.59 6.33L254.44 6.33L254.44 3.22ZM275.84 2.21L275.84 10.01L270.12 2.21L268.90 2.21L268.90 11.48L269.95 11.48L269.95 3.65L275.67 11.48L276.89 11.48L276.89 2.21ZM290.14 10.57C287.88 10.57 286.62 8.93 286.62 6.85C286.62 4.76 287.88 3.12 290.14 3.12C291.66 3.12 292.67 3.85 293.15 4.98L294.25 4.98C293.66 3.29 292.15 2.10 290.05 2.10C287.27 2.10 285.57 4.21 285.57 6.85C285.57 9.48 287.27 11.59 290.05 11.59C292.15 11.59 293.66 10.40 294.25 8.71L293.15 8.71C292.67 9.84 291.66 10.57 290.14 10.57ZM306.46 7.81L310.34 2.21L309.06 2.21L305.93 6.72L302.79 2.21L301.52 2.21L305.41 7.81L305.41 11.48L306.46 11.48ZM316.54 13.34L317.49 13.34L318.72 10.36L317.35 10.36ZM340.35 2.10C338.34 2.10 337.27 3.19 337.27 4.63C337.27 5.56 338.04 6.38 338.67 6.58C337.60 6.99 336.97 7.83 336.97 8.82C336.97 10.47 338.46 11.59 340.21 11.59C342.19 11.59 343.38 10.49 343.38 8.90L343.38 7.13L344.29 7.13L344.29 6.19L343.38 6.19L343.38 5.57L342.40 5.57L342.40 6.19L340.14 6.19C339.18 6.19 338.32 5.70 338.32 4.65C338.32 3.77 338.94 3.05 340.33 3.05C341.42 3.05 342.05 3.58 342.19 4.03L343.29 4.03C343.10 3.08 342.26 2.10 340.35 2.10ZM342.40 7.13L342.40 8.99C342.40 9.86 341.68 10.65 340.21 10.65C338.90 10.65 338.02 9.80 338.02 8.85C338.02 7.91 338.84 7.13 340.02 7.13ZM363.73 8.18L366.86 8.18C368.83 8.18 370.05 7.03 370.05 5.19C370.05 3.37 368.83 2.21 366.86 2.21L362.68 2.21L362.68 11.48L363.73 11.48ZM366.79 3.21C368.24 3.21 369.00 3.96 369.00 5.19C369.00 6.44 368.24 7.20 366.79 7.20L363.73 7.20L363.73 3.21ZM385.29 3.22L385.29 2.21L378.48 2.21L378.48 11.48L385.29 11.48L385.29 10.47L379.53 10.47L379.53 7.35L384.68 7.35L384.68 6.33L379.53 6.33L379.53 3.22ZM398.15 2.21L396.83 2.21L392.90 11.48L394.06 11.48L395.19 8.79L399.78 8.79L400.92 11.48L402.08 11.48ZM395.60 7.83L397.49 3.30L399.38 7.83ZM414.05 10.57C411.80 10.57 410.54 8.93 410.54 6.85C410.54 4.76 411.80 3.12 414.05 3.12C415.58 3.12 416.58 3.85 417.06 4.98L418.17 4.98C417.58 3.29 416.07 2.10 413.97 2.10C411.18 2.10 409.49 4.21 409.49 6.85C409.49 9.48 411.18 11.59 413.97 11.59C416.07 11.59 417.58 10.40 418.17 8.71L417.06 8.71C416.58 9.84 415.58 10.57 414.05 10.57ZM433.55 3.22L433.55 2.21L426.73 2.21L426.73 11.48L433.55 11.48L433.55 10.47L427.78 10.47L427.78 7.35L432.94 7.35L432.94 6.33L427.78 6.33L427.78 3.22ZM456.34 2.10C453.53 2.10 451.64 4.21 451.64 6.85C451.64 9.48 453.53 11.59 456.34 11.59C459.16 11.59 461.05 9.48 461.05 6.85C461.05 4.21 459.16 2.10 456.34 2.10ZM456.34 10.57C454.09 10.57 452.69 8.93 452.69 6.85C452.69 4.76 454.09 3.12 456.34 3.12C458.60 3.12 460.00 4.76 460.00 6.85C460.00 8.93 458.60 10.57 456.34 10.57ZM476.42 3.22L476.42 2.21L469.73 2.21L469.73 11.48L470.78 11.48L470.78 7.46L475.80 7.46L475.80 6.44L470.78 6.44L470.78 3.22ZM502.67 2.21L499.41 6.61L496.09 2.21L494.87 2.21L494.87 11.48L495.92 11.48L495.92 3.81L499.41 8.22L502.84 3.81L502.84 11.48L503.89 11.48L503.89 2.21ZM514.21 2.21L513.16 2.21L513.16 11.48L514.21 11.48ZM530.42 2.21L530.42 10.01L524.69 2.21L523.47 2.21L523.47 11.48L524.52 11.48L524.52 3.65L530.25 11.48L531.47 11.48L531.47 2.21ZM544.64 2.21L540.74 2.21L540.74 11.48L544.64 11.48C546.85 11.48 548.90 9.74 548.90 6.85C548.90 3.95 546.85 2.21 544.64 2.21ZM544.60 10.49L541.79 10.49L541.79 3.21L544.60 3.21C546.57 3.21 547.85 4.86 547.85 6.85C547.85 8.83 546.57 10.49 544.60 10.49Z"></path></g></svg>