<svg data-v-423bf9ae="" xmlns="http://www.w3.org/2000/svg" viewBox="0 0 279.23575694026647 60" class="font"><!----><!----><!----><g data-v-423bf9ae="" id="9cb60d3e-2161-4a37-9d58-8eb837f73a5e" fill="white" transform="matrix(4.325882939406962,0,0,4.325882939406962,-5.537133171208922,-11.463590678813958)"><path d="M1.28 13.78L1.28 2.80L3.57 2.80L3.57 2.80Q4.99 2.80 5.98 3.44L5.98 3.44L5.98 3.44Q6.97 4.07 7.48 5.32L7.48 5.32L7.48 5.32Q7.99 6.57 7.99 8.39L7.99 8.39L7.99 8.39Q7.99 10.11 7.47 11.32L7.47 11.32L7.47 11.32Q6.95 12.53 5.95 13.16L5.95 13.16L5.95 13.16Q4.96 13.78 3.55 13.78L3.55 13.78L1.28 13.78ZM2.32 12.80L3.39 12.80L3.39 12.80Q5.18 12.80 6.05 11.69L6.05 11.69L6.05 11.69Q6.92 10.58 6.92 8.29L6.92 8.29L6.92 8.29Q6.92 6.00 6.09 4.89L6.09 4.89L6.09 4.89Q5.25 3.77 3.53 3.77L3.53 3.77L2.32 3.77L2.32 12.80ZM14.88 9.63L14.88 9.63Q14.88 9.98 14.86 10.12L14.86 10.12L10.08 10.12L10.08 10.12Q10.12 10.91 10.36 11.57L10.36 11.57L10.36 11.57Q10.61 12.22 11.09 12.62L11.09 12.62L11.09 12.62Q11.57 13.02 12.26 13.02L12.26 13.02L12.26 13.02Q13.28 13.02 14.05 12.22L14.05 12.22L14.64 12.89L14.64 12.89Q14.11 13.45 13.51 13.70L13.51 13.70L13.51 13.70Q12.92 13.94 12.26 13.94L12.26 13.94L12.26 13.94Q11.20 13.94 10.49 13.34L10.49 13.34L10.49 13.34Q9.77 12.75 9.43 11.78L9.43 11.78L9.43 11.78Q9.08 10.81 9.08 9.69L9.08 9.69L9.08 9.69Q9.08 8.57 9.37 7.62L9.37 7.62L9.37 7.62Q9.66 6.67 10.33 6.07L10.33 6.07L10.33 6.07Q10.99 5.48 12.07 5.48L12.07 5.48L12.07 5.48Q13.23 5.48 13.85 6.09L13.85 6.09L13.85 6.09Q14.46 6.71 14.67 7.62L14.67 7.62L14.67 7.62Q14.88 8.52 14.88 9.63L14.88 9.63ZM12.04 6.40L12.04 6.40Q11.01 6.40 10.56 7.20L10.56 7.20L10.56 7.20Q10.12 8.00 10.08 9.26L10.08 9.26L13.96 9.26L13.96 9.26Q13.94 8.31 13.77 7.69L13.77 7.69L13.77 7.69Q13.61 7.08 13.20 6.74L13.20 6.74L13.20 6.74Q12.79 6.40 12.04 6.40L12.04 6.40ZM16.32 13.78L16.32 5.63L17.33 5.63L17.33 6.89L17.38 6.89L17.38 6.89Q17.69 6.23 18.17 5.85L18.17 5.85L18.17 5.85Q18.64 5.48 19.27 5.48L19.27 5.48L19.27 5.48Q19.94 5.48 20.43 5.80L20.43 5.80L20.43 5.80Q20.92 6.13 21.19 6.73L21.19 6.73L21.19 6.73Q21.45 7.34 21.45 8.18L21.45 8.18L21.45 13.78L20.46 13.78L20.46 8.28L20.46 8.28Q20.46 7.27 20.12 6.84L20.12 6.84L20.12 6.84Q19.78 6.41 19.13 6.41L19.13 6.41L19.13 6.41Q18.61 6.41 18.19 6.74L18.19 6.74L18.19 6.74Q17.78 7.06 17.55 7.65L17.55 7.65L17.55 7.65Q17.32 8.23 17.32 8.99L17.32 8.99L17.32 13.78L16.32 13.78ZM25.15 13.78L25.15 13.78Q24.29 13.78 23.88 13.28L23.88 13.28L23.88 13.28Q23.47 12.77 23.47 11.74L23.47 11.74L23.47 6.45L22.49 6.45L22.49 5.63L23.47 5.63L23.63 3.76L24.46 3.76L24.46 5.63L26.21 5.63L26.21 6.45L24.46 6.45L24.46 11.55L24.46 11.55Q24.46 12.07 24.55 12.37L24.55 12.37L24.55 12.37Q24.64 12.67 24.85 12.81L24.85 12.81L24.85 12.81Q25.05 12.95 25.42 12.95L25.42 12.95L26.04 12.95L26.04 13.78L25.15 13.78ZM29.46 5.48L29.46 5.48Q30.19 5.48 30.77 5.75L30.77 5.75L30.77 5.75Q31.34 6.03 31.67 6.58L31.67 6.58L31.67 6.58Q32.00 7.12 32.00 7.90L32.00 7.90L32.00 13.78L31.14 13.78L31.09 12.46L31.01 12.46L31.01 12.46Q30.65 13.13 30.04 13.55L30.04 13.55L30.04 13.55Q29.43 13.96 28.79 13.96L28.79 13.96L28.79 13.96Q28.17 13.96 27.69 13.69L27.69 13.69L27.69 13.69Q27.21 13.41 26.94 12.94L26.94 12.94L26.94 12.94Q26.67 12.47 26.67 11.90L26.67 11.90L26.67 11.90Q26.67 11.04 27.03 10.45L27.03 10.45L27.03 10.45Q27.38 9.85 28.10 9.41L28.10 9.41L28.10 9.41Q28.68 9.05 29.43 8.81L29.43 8.81L29.43 8.81Q30.19 8.57 31.08 8.47L31.08 8.47L31.08 8.04L31.08 8.04Q31.08 7.17 30.69 6.79L30.69 6.79L30.69 6.79Q30.30 6.41 29.54 6.41L29.54 6.41L29.54 6.41Q28.85 6.41 28.38 6.72L28.38 6.72L28.38 6.72Q27.90 7.03 27.56 7.67L27.56 7.67L26.82 7.13L26.82 7.13Q27.27 6.29 27.92 5.88L27.92 5.88L27.92 5.88Q28.57 5.48 29.46 5.48L29.46 5.48ZM28.92 12.99L28.92 12.99Q29.65 12.99 30.18 12.52L30.18 12.52L30.18 12.52Q30.71 12.04 31.08 11.29L31.08 11.29L31.08 9.34L31.08 9.34Q30.32 9.43 29.67 9.64L29.67 9.64L29.67 9.64Q29.03 9.84 28.57 10.19L28.57 10.19L28.57 10.19Q28.17 10.48 27.96 10.88L27.96 10.88L27.96 10.88Q27.74 11.27 27.74 11.76L27.74 11.76L27.74 11.76Q27.74 12.32 28.07 12.65L28.07 12.65L28.07 12.65Q28.40 12.99 28.92 12.99L28.92 12.99ZM41.51 14.37L41.22 15.26L36.85 13.88L36.85 13.88Q35.83 13.71 35.08 12.97L35.08 12.97L35.08 12.97Q34.33 12.24 33.93 11.04L33.93 11.04L33.93 11.04Q33.52 9.84 33.52 8.29L33.52 8.29L33.52 8.29Q33.52 6.58 34.01 5.30L34.01 5.30L34.01 5.30Q34.49 4.03 35.40 3.34L35.40 3.34L35.40 3.34Q36.30 2.65 37.50 2.65L37.50 2.65L37.50 2.65Q38.70 2.65 39.60 3.34L39.60 3.34L39.60 3.34Q40.50 4.03 40.98 5.30L40.98 5.30L40.98 5.30Q41.47 6.58 41.47 8.29L41.47 8.29L41.47 8.29Q41.47 9.60 41.18 10.67L41.18 10.67L41.18 10.67Q40.89 11.74 40.34 12.49L40.34 12.49L40.34 12.49Q39.79 13.23 39.03 13.60L39.03 13.60L41.51 14.37ZM34.56 8.29L34.56 8.29Q34.56 9.71 34.92 10.76L34.92 10.76L34.92 10.76Q35.28 11.81 35.95 12.38L35.95 12.38L35.95 12.38Q36.61 12.95 37.50 12.95L37.50 12.95L37.50 12.95Q38.39 12.95 39.06 12.38L39.06 12.38L39.06 12.38Q39.72 11.81 40.08 10.76L40.08 10.76L40.08 10.76Q40.44 9.71 40.44 8.29L40.44 8.29L40.44 8.29Q40.44 6.88 40.08 5.83L40.08 5.83L40.08 5.83Q39.72 4.77 39.06 4.20L39.06 4.20L39.06 4.20Q38.39 3.63 37.50 3.63L37.50 3.63L37.50 3.63Q36.61 3.63 35.95 4.20L35.95 4.20L35.95 4.20Q35.28 4.77 34.92 5.83L34.92 5.83L34.92 5.83Q34.56 6.88 34.56 8.29L34.56 8.29ZM45.15 13.94L45.15 13.94Q44.51 13.94 44.03 13.61L44.03 13.61L44.03 13.61Q43.54 13.29 43.28 12.68L43.28 12.68L43.28 12.68Q43.02 12.07 43.02 11.23L43.02 11.23L43.02 5.63L44.01 5.63L44.01 11.14L44.01 11.14Q44.01 11.55 44.08 11.94L44.08 11.94L44.08 11.94Q44.15 12.33 44.43 12.67L44.43 12.67L44.43 12.67Q44.71 13.00 45.30 13.00L45.30 13.00L45.30 13.00Q45.86 13.00 46.28 12.68L46.28 12.68L46.28 12.68Q46.70 12.36 46.93 11.77L46.93 11.77L46.93 11.77Q47.15 11.18 47.15 10.42L47.15 10.42L47.15 5.63L48.15 5.63L48.15 13.78L47.14 13.78L47.14 12.52L47.09 12.52L47.09 12.52Q46.76 13.21 46.29 13.58L46.29 13.58L46.29 13.58Q45.82 13.94 45.15 13.94L45.15 13.94ZM55.43 9.63L55.43 9.63Q55.43 9.98 55.41 10.12L55.41 10.12L50.63 10.12L50.63 10.12Q50.67 10.91 50.91 11.57L50.91 11.57L50.91 11.57Q51.16 12.22 51.64 12.62L51.64 12.62L51.64 12.62Q52.12 13.02 52.81 13.02L52.81 13.02L52.81 13.02Q53.83 13.02 54.60 12.22L54.60 12.22L55.19 12.89L55.19 12.89Q54.66 13.45 54.07 13.70L54.07 13.70L54.07 13.70Q53.47 13.94 52.81 13.94L52.81 13.94L52.81 13.94Q51.75 13.94 51.04 13.34L51.04 13.34L51.04 13.34Q50.32 12.75 49.98 11.78L49.98 11.78L49.98 11.78Q49.64 10.81 49.64 9.69L49.64 9.69L49.64 9.69Q49.64 8.57 49.92 7.62L49.92 7.62L49.92 7.62Q50.21 6.67 50.88 6.07L50.88 6.07L50.88 6.07Q51.54 5.48 52.62 5.48L52.62 5.48L52.62 5.48Q53.78 5.48 54.40 6.09L54.40 6.09L54.40 6.09Q55.02 6.71 55.22 7.62L55.22 7.62L55.22 7.62Q55.43 8.52 55.43 9.63L55.43 9.63ZM52.60 6.40L52.60 6.40Q51.56 6.40 51.12 7.20L51.12 7.20L51.12 7.20Q50.67 8.00 50.63 9.26L50.63 9.26L54.51 9.26L54.51 9.26Q54.49 8.31 54.33 7.69L54.33 7.69L54.33 7.69Q54.16 7.08 53.75 6.74L53.75 6.74L53.75 6.74Q53.34 6.40 52.60 6.40L52.60 6.40ZM56.88 13.78L56.88 5.63L57.88 5.63L57.88 6.96L57.91 6.96L57.91 6.96Q58.15 6.27 58.57 5.89L58.57 5.89L58.57 5.89Q58.98 5.51 59.50 5.51L59.50 5.51L59.50 5.51Q60.06 5.51 60.35 5.65L60.35 5.65L60.35 6.59L60.35 6.59Q59.96 6.47 59.70 6.47L59.70 6.47L59.70 6.47Q59.62 6.47 59.58 6.48L59.58 6.48L59.58 6.48Q58.75 6.56 58.31 7.30L58.31 7.30L58.31 7.30Q57.87 8.05 57.87 9.39L57.87 9.39L57.87 13.78L56.88 13.78ZM64.76 5.63L65.83 5.63L63.81 13.78L63.81 13.78Q63.57 14.70 63.27 15.30L63.27 15.30L63.27 15.30Q62.96 15.89 62.50 16.20L62.50 16.20L62.50 16.20Q62.05 16.52 61.41 16.52L61.41 16.52L61.41 16.52Q60.94 16.52 60.44 16.34L60.44 16.34L60.68 15.58L60.68 15.58Q60.85 15.64 61.03 15.66L61.03 15.66L61.03 15.66Q61.21 15.69 61.52 15.69L61.52 15.69L61.52 15.69Q62.08 15.69 62.41 15.18L62.41 15.18L62.41 15.18Q62.74 14.68 62.92 13.78L62.92 13.78L62.39 13.78L60.37 5.63L61.46 5.63L62.43 10.06L63.11 13.15L64.76 5.63Z"></path></g><!----><!----></svg>